<?xml version="1.0" encoding="utf-8"?>
<!-- Generator: Adobe Illustrator 22.0.0, SVG Export Plug-In . SVG Version: 6.00 Build 0)  -->
<svg version="1.1" id="Layer_1" xmlns="http://www.w3.org/2000/svg" xmlns:xlink="http://www.w3.org/1999/xlink" x="0px" y="0px"
	 viewBox="0 0 1288 1232" style="enable-background:new 0 0 1288 1232;" xml:space="preserve">
<style type="text/css">
	.st0{fill:#445273;}
	.st1{fill:#E1E8F9;}
	.st2{fill:#467689;}
	.st3{fill:#46A0D8;}
	.st4{fill:#FEBF84;}
	.st5{fill:#FFFFFF;}
	.st6{fill:#F05D62;}
	.st7{fill:#ECEFF0;}
	.st8{fill:#FEA990;}
	.st9{fill:#2A6883;}
	.st10{fill:#22BAAF;}
	.st11{fill:#20293D;}
	.st12{fill:#3789A5;}
	.st13{fill:#FBBD7D;}
	.st14{fill:#F61F03;stroke:#F61F03;stroke-width:3;stroke-miterlimit:10;}
	.st15{fill:#F1F1F1;}
	.st16{fill:#FDD098;}
	.st17{fill:#9D805E;}
	.st18{fill:#ECF6F5;}
	.st19{opacity:0.8;}
	.st20{fill:#EEFDFF;}
	.st21{fill:#0063AC;}
	.st22{fill:#8CC8ED;}
	.st23{fill:none;stroke:#FAB225;stroke-width:5;stroke-miterlimit:10;}
	.st24{fill:#41596B;}
	.st25{fill:#F26F5A;}
	.st26{fill:none;stroke:#18559D;stroke-width:5;stroke-miterlimit:10;}
	.st27{fill:#CEA886;}
	.st28{fill:#18559D;}
	.st29{fill:none;stroke:#8CC8ED;stroke-width:10;stroke-miterlimit:10;}
	.st30{fill:none;stroke:#8CC8ED;stroke-width:6;stroke-miterlimit:10;}
</style>
<g id="palette">
</g>
<g id="Font">
</g>
<g id="Steps">
</g>
<g id="Image">
	<path class="st0" d="M1118.3,358.4c-25.1-25-156-122.4-164.8-128.1c-18.5-12-97.7-84.7-114.9-99.2C741,49,587,41.6,572.9,41.3
		c-17.9-0.4-36,0.5-53.8,1.2c-6.8,0.3-13.5,0.7-20.2,1.4c-13.5,1.4-26.8,3.7-40,6.8c-23.6,5.6-47,12.8-69.8,21.4
		c-12.6,4.7-25,10.3-36.9,16.6c-21.2,11.3-41.8,24.1-61.4,38.1c-11.1,7.9-21.6,16.6-31.4,26.1c-17.2,16.6-34.2,34-48.8,53
		c-15.1,19.6-26.3,41.4-38.1,63.2c-7.5,13.8-13.8,28.1-18.9,43c-8.7,25.2-14.7,51.5-19.7,77.6c-3,15.4-45.6,286.3,12.1,440
		c14.1,37.5,111.9,172.9,142.6,203.4c21.3,21.2,43.2,42.3,67.4,60.2c24.4,18.1,51.1,32.6,78,46.7c19.7,10.4,40.4,18.9,61.6,25.6
		c21.9,6.9,44.5,12,66.8,17c11.6,2.6,23.3,4.8,35.1,6.4c23.7,3.4,47.6,4.9,71.6,4.9c35.2,0,70.7-1.3,105.7-5.2
		c48.3-5.4,96-15.8,142.7-29c31.5-8.9,64.1-17.7,93.9-31.8c19.7-9.3,38.5-21.2,56.4-33.7c17.6-12.3,31.6-28.4,46.2-44
		c7.6-8.1,14.4-16.9,20.3-26.3c11.5-18.3,22.1-37.4,30.7-57.2c4.4-10.1,8.1-20.4,11.2-31C1182.3,914.5,1313.9,553.3,1118.3,358.4z"
		/>
	<g>
		<g>
			<path class="st1" d="M637.1,158c54.1,0,106.6,10.6,156.1,31.5c47.7,20.2,90.6,49.1,127.4,85.9c36.8,36.8,65.7,79.7,85.9,127.4
				c20.9,49.4,31.5,101.9,31.5,156.1c0,54.1-10.6,106.6-31.5,156.1c-20.2,47.7-49.1,90.6-85.9,127.4
				c-36.8,36.8-79.7,65.7-127.4,85.9c-49.4,20.9-101.9,31.5-156.1,31.5c-54.1,0-106.6-10.6-156.1-31.5
				c-47.7-20.2-90.6-49.1-127.4-85.9c-36.8-36.8-65.7-79.7-85.9-127.4c-20.9-49.4-31.5-101.9-31.5-156.1
				c0-54.1,10.6-106.6,31.5-156.1c20.2-47.7,49.1-90.6,85.9-127.4s79.7-65.7,127.4-85.9C530.4,168.6,582.9,158,637.1,158 M637.1,150
				c-225.8,0-408.9,183.1-408.9,408.9s183.1,408.9,408.9,408.9s408.9-183,408.9-408.9S862.9,150,637.1,150L637.1,150z"/>
		</g>
		<g>
			<path class="st2" d="M142.2,1028.5h1043.1c22.2,0,40.1-18,40.1-40.1V982H102v6.3C102,1010.5,120,1028.5,142.2,1028.5z"/>
			<g>
				<path class="st3" d="M207.8,458.5L96.2,696.1l37.4,255.4h43.1l-55.6-255.4L224.2,467C228.7,457.4,213.5,450.1,207.8,458.5z"/>
				<g>
					<path class="st4" d="M328.4,951.5H75.2c-18.7,0-41.3,28.3-22.6,28.3h290.8C362.1,979.8,347.1,951.5,328.4,951.5z"/>
					<path class="st4" d="M111.2,675.8c-11.1,0-20.2,9-20.2,20.2c0,11.1,9,20.2,20.2,20.2s20.2-9,20.2-20.2
						C131.3,684.8,122.3,675.8,111.2,675.8z"/>
				</g>
				<path class="st5" d="M111.2,686c-5.5,0-10,4.5-10,10s4.5,10,10,10s10-4.5,10-10C121.1,690.5,116.7,686,111.2,686z"/>
				<path class="st6" d="M278.6,944l-46.1-7.6v15.1h46.1V944z"/>
			</g>
			<path class="st5" d="M199.3,843.5h93.6c5.2,0,9.5,4.3,9.5,9.5v117.3c0,5.2-4.3,9.5-9.5,9.5h-93.6c-5.2,0-9.5-4.3-9.5-9.5V853.1
				C189.7,847.8,194,843.5,199.3,843.5z"/>
			<g>
				<path class="st7" d="M302.4,870.3h26.3c8.7,0,15.8,6.2,15.8,13.7v64.8c0,7.5-7.1,13.7-15.8,13.7h-26.3v-10.9h26.3
					c1.5,0,4.7-1,4.7-2.8V884c0-1.8-3.3-2.8-4.7-2.8h-26.3V870.3z"/>
				<path class="st7" d="M289.5,979.9V843.5h3.3c5.2,0,9.5,4.2,9.5,9.4v117.6c0,5.2-4.3,9.4-9.5,9.4H289.5z"/>
			</g>
			<path class="st8" d="M234.3,843.5v40.2c11.7,0.5,10.4,0.6,10.4,0v-40.2H234.3z"/>
			<path class="st9" d="M225.1,888.5h28.4v25.2h-28.4V888.5z"/>
			<path class="st10" d="M225.1,888.5h28.4l-1.6-5.2h-24.5L225.1,888.5z"/>
			<path class="st11" d="M192,1045.3h943.5v-16.9H192V1045.3z"/>
			<path class="st12" d="M1064.8,1147H261.3c-28.5,0-51.8-23-52.1-51.5l-0.5-50.1h907.7l0.5,49.1
				C1117.2,1123.4,1093.8,1147,1064.8,1147z"/>
			<path class="st5" d="M827,974.5v6.6h186.9h186.9v-6.6H827L827,974.5z"/>
		</g>
		<g>
			<g>
				<path class="st13" d="M600.6,418.8h17.6H669h17.6l6.5,71.7l12.6,9.7l25.6,15.9l-87.8,205.3L556,516l25.6-15.9l12.6-9.7
					L600.6,418.8L600.6,418.8z"/>
				<path class="st14" d="M573.7,504.4l-124.3,40.1c0,0-12.6,6.5-19.1,23.8C393.5,608,275.7,737.2,275.7,769
					c0,38.2,100.2,132.2,100.2,132.2h47.9v81.1l437.4-0.4l-0.8-79.2h47.9c0,0,100.2-94,100.2-132.2c0-33.5-117.8-162.4-154.5-200.6
					c-6.5-17.6-19.1-23.8-19.1-23.8l-121.1-42.9l-12.5,35l-59-3.2l-59,3.2l-9.4-33.2L573.7,504.4z"/>
				<path class="st15" d="M573.6,504.9l-15.9,4.7l86.1,210l87.5-210l-19.9-7.4l-40.6,28h-52.6L573.6,504.9L573.6,504.9z"/>
				<path class="st16" d="M740.8,274c0,6.5,3.2,12.6,1.5,19.1c22.3-4.7,11.2,63.7-1.5,71.7c-1.5,0-3.2-1.5-6.5-1.5
					c-4.7,25.6-42.9,90.8-67,117.8c-6.5,7.9-47.9,7.9-54.1,0c-25.6-27-62-94-67-119.3c-1.5,1.5-4.7,3.2-6.5,1.5
					c-12.6-9.7-23.8-76.4-1.5-71.7c0-6.5,1.5-12.6,1.5-19.1c1.5-52.6,47.9-78.1,98.7-78.1C693.2,195.8,740.8,223.1,740.8,274
					L740.8,274z"/>
				<path class="st17" d="M710.5,207c6.5-1.5,33.5,6.5,36.7,35c3.2,27,1.5,52.6,1.5,52.6s-14.4,3.2-17.6,19.1
					c-1.5,15.9,0,15.9,0,15.9l-4.7-1.5l-3.2-27c-22.3-14.4,0-35-22.3-39.7c-60.5,42.9-114.6,36.7-138.7,15.9c0,0,6.5,20.6,1.5,28.8
					c-4.7,7.9-3.8,19.3-3.8,19.3l-4.1-0.2c0,0,1.5-31.7-11.2-31.7C494,214.9,646.8,116.2,710.5,207L710.5,207z"/>
				<g>
					<path class="st11" d="M592.7,479.3c1.5,0-20.6,25.6-20.6,25.6l19.1,65.2l50.8-38.2C615,519.3,597.4,501.6,592.7,479.3
						L592.7,479.3z"/>
					<path class="st11" d="M693.2,479.3c-1.5,0,20.6,25.6,20.6,25.6l-19.1,65.2l-50.8-38.2C670.8,519.3,688.2,501.6,693.2,479.3
						L693.2,479.3z"/>
				</g>
				<path class="st4" d="M404.7,914.9v25.6c0,3.2-3.2,6.5-6.5,6.5H387c-3.2,0-6.5-3.2-6.5-6.5v-39.7v-1.5v-9.7
					c0-7.9,6.5-14.4,14.4-14.4h84.3c7.9,0,14.4,6.5,14.4,14.4v9.7v1.5v39.7c0,3.2-3.2,6.5-6.5,6.5h-10.9c-3.2,0-6.5-3.2-6.5-6.5
					v-25.6H462v25.6c0,3.2-3.2,6.5-6.5,6.5h-11.2c-3.2,0-6.5-3.2-6.5-6.5v-25.6H430v25.6c0,3.2-3.2,6.5-6.5,6.5h-11.2
					c-3.2,0-6.5-3.2-6.5-6.5v-25.6H404.7L404.7,914.9z"/>
				<path class="st4" d="M880.9,910.8v25.6c0,3.2,3.2,6.5,6.5,6.5h11.2c3.2,0,6.5-3.2,6.5-6.5v-39.7v-1.5v-9.7
					c0-7.9-6.5-14.4-14.4-14.4h-84.3c-7.9,0-14.4,6.5-14.4,14.4v9.7v1.5v39.7c0,3.2,3.2,6.5,6.5,6.5h7.9c3.2,0,6.5-3.2,6.5-6.5
					v-25.6h7.9v25.6c0,3.2,3.2,6.5,6.5,6.5h11.2c3.2,0,6.5-3.2,6.5-6.5v-25.6h7.9v25.6c0,3.2,3.2,6.5,6.5,6.5h11.2
					c3.2,0,6.5-3.2,6.5-6.5v-25.6H880.9L880.9,910.8z"/>
				<path class="st11" d="M393.8,942h499.7c6.5,0,9.7,4.7,9.7,9.7v20.6c0,6.5-4.7,9.7-9.7,9.7H393.8c-6.5,0-9.7-4.7-9.7-9.7v-19.1
					C382.7,946.7,387.4,942,393.8,942z"/>
				<g>
					<path class="st18" d="M459,922.9h44.7v30.3H459V922.9z M782.2,922.9L782.2,922.9h44.7v30.3h-44.7V922.9z"/>
				</g>
			</g>
			<g class="st19">
				<polygon class="st20" points="383,876.8 778.3,658.3 373,496.3 249.1,617.7 				"/>
			</g>
			<circle class="st11" cx="643.5" cy="558.9" r="6.5"/>
			<circle class="st11" cx="643.5" cy="592.4" r="6.5"/>
			<path class="st5" d="M335.8,581.6c16.4-16.1,16.3-42.6-0.4-59.2c-11.3-11.2-27.2-15-41.5-11.3L280,497.3c-1.7-1.6-4.3-1.7-6-0.1
				l-21.8,21.4c-1.6,1.6-1.6,4.2,0,5.9l13,13c-5,14.6-1.4,31.4,10.5,43.3C292.5,597.3,319.3,597.7,335.8,581.6L335.8,581.6z"/>
			<g>
				<path class="st21" d="M1201.3,981.2H969.5c-6.6,0-12-5.4-12-12v-32.4c0-6.6,5.4-12,12-12h231.8c6.6,0,12,5.4,12,12v32.4
					C1213.3,975.8,1207.9,981.2,1201.3,981.2z"/>
				<g>
					<rect x="981.6" y="935.2" class="st5" width="7.3" height="35.4"/>
				</g>
				<g>
					<rect x="997.1" y="935.2" class="st5" width="7.3" height="35.4"/>
				</g>
				<rect x="1143.6" y="939.3" class="st11" width="57" height="27.2"/>
				<path class="st22" d="M1212.4,931.1H957.9c-1.4,0-2.5-1.1-2.5-2.5v-0.9c0-1.8,1.5-3.3,3.3-3.3h252.8c1.8,0,3.3,1.5,3.3,3.3v0.9
					C1214.8,930,1213.7,931.1,1212.4,931.1z"/>
				<path class="st3" d="M1210.3,981.3H960c-2.5,0-4.5-2-4.5-4.5v-0.9c0-0.7,0.5-1.2,1.2-1.2h256.9c0.7,0,1.2,0.5,1.2,1.2v0.9
					C1214.8,979.3,1212.8,981.3,1210.3,981.3z"/>
			</g>
			<path class="st4" d="M281.6,466.4L250,435c-10.8-10.7-28.6-10.8-39.4-0.1L188,457.1c-10.9,10.7-11,28.2-0.1,38.9l31.6,31.4
				c-7.3,27.7-0.3,60.6,29.6,90.3l124-121.4C343.1,466.6,309.8,459.4,281.6,466.4L281.6,466.4z"/>
			<g>
				<path class="st22" d="M1236.1,924.3h-231.8c-6.6,0-12-5.4-12-12v-55.7c0-6.6,5.4-12,12-12h231.8c6.6,0,12,5.4,12,12v55.7
					C1248.1,918.9,1242.8,924.3,1236.1,924.3z"/>
				<g>
					<rect x="1020.3" y="859.2" class="st5" width="10.2" height="50"/>
				</g>
				<g>
					<rect x="1042.9" y="859.2" class="st5" width="10.2" height="50"/>
				</g>
				<path class="st21" d="M1246.4,853.4H993.6c-1.8,0-3.3-1.5-3.3-3.3v-1.3c0-2.7,2.2-4.8,4.8-4.8h249.7c2.7,0,4.8,2.2,4.8,4.8v1.3
					C1249.7,851.9,1248.2,853.4,1246.4,853.4z"/>
				<path class="st23" d="M1170.5,815c0,0-1,26.1,13.3,25.6c14.4-0.5,20,4.6,21,35.4"/>
				<path class="st21" d="M1244.4,924.4H995.5c-2.9,0-5.2-2.3-5.2-5.2v-1.3c0-1.6,1.3-2.9,2.9-2.9h253.5c1.6,0,2.9,1.3,2.9,2.9v1.3
					C1249.7,922.1,1247.3,924.4,1244.4,924.4z"/>
				<path class="st24" d="M1195.4,875.2l18.5-0.2l-1.1-5.2l-15.9,0.2L1195.4,875.2z"/>
				
					<rect x="1195.5" y="875" transform="matrix(0.9998 -1.748622e-02 1.748622e-02 0.9998 -15.3437 21.2031)" class="st25" width="18.5" height="26.1"/>
			</g>
			<g>
				<path class="st3" d="M1186.9,843.9H963.4c-6.6,0-12-5.4-12-12v-32.4c0-6.6,5.4-12,12-12H1187c6.6,0,12,5.4,12,12v32.4
					C1198.9,838.5,1193.6,843.9,1186.9,843.9z"/>
				<path class="st22" d="M1202.2,793.8H948.6c-1.6,0-2.9-1.3-2.9-2.9V790c0-1.6,1.3-2.9,2.9-2.9h253.6c1.6,0,2.9,1.3,2.9,2.9v0.9
					C1205.1,792.5,1203.8,793.8,1202.2,793.8z"/>
				<path class="st22" d="M1199.8,844H951c-2.5,0-4.7-1.8-5.1-4.2c-0.2-0.8,0.1-1.6,0.6-2.1c0.2-0.2,0.4-0.3,0.7-0.3h256.5
					c0.2,0,0.5,0.1,0.7,0.3c0.6,0.5,0.8,1.4,0.6,2.1C1204.5,842.2,1202.4,844,1199.8,844z"/>
				<path class="st26" d="M1203.5,828.6"/>
				<path class="st26" d="M947.8,828.6"/>
				<path class="st26" d="M1203.5,802.9"/>
				<path class="st26" d="M947.8,802.9"/>
				<g>
					<rect x="1148.2" y="826" class="st5" width="40.6" height="3.3"/>
				</g>
				<g>
					<rect x="1148.2" y="813.7" class="st5" width="40.6" height="3.3"/>
				</g>
				<g>
					<rect x="961.6" y="802.5" class="st5" width="227.2" height="3.1"/>
				</g>
			</g>
			<path class="st17" d="M575.7,322.2c0,0,18.2-10.1,47.4-4.5c0,0,6-6-0.9-9.5S579.8,309.2,575.7,322.2z"/>
			<path class="st17" d="M705,317.5c0,0-18.6-9.3-47.6-2.5c0,0-6.3-5.7,0.5-9.5S700.3,304.8,705,317.5z"/>
			<path class="st27" d="M635.3,336.5c0,0-10.1,55.1-5.2,60c4.8,5,28.7,1.1,28.7,1.1s-23.7,1.4-23.5-5.3
				C635.5,386.8,635.3,336.5,635.3,336.5z"/>
			<path class="st27" d="M625.9,446.2c0,0,14.4-6.8,32.3,0C658.2,446.2,642.8,441.9,625.9,446.2z"/>
			<path class="st5" d="M607,417.6c0,0,19.4,23.8,43.5,17.5s30.2-22.2,30.2-22.2l-19.8,5.3c-9.9,2.6-20.2,3.4-30.3,2.2L607,417.6z"
				/>
			<g>
				<ellipse class="st5" cx="675" cy="339.8" rx="11.3" ry="16.4"/>
			</g>
			<g>
				<ellipse class="st5" cx="610.7" cy="339.8" rx="11.3" ry="16.4"/>
			</g>
			<circle class="st28" cx="675" cy="340" r="6.5"/>
			<circle class="st28" cx="610.7" cy="340" r="6.5"/>
			<circle class="st5" cx="677.4" cy="338.5" r="2.1"/>
			<circle class="st5" cx="612.8" cy="338" r="2.1"/>
			<path class="st5" d="M409.9,619.9h466.5c14.4,0,27,12.6,27,27v257.9c0,14.4-12.6,27-27,27H409.9c-14.4,0-27-12.6-27-27V646.9
				C382.9,631.1,395.5,619.9,409.9,619.9z"/>
			<path class="st8" d="M188.6,456.5l-0.6,0.6c-10.9,10.7-11,28.2-0.1,38.9l31.6,31.4c-7.3,27.7-0.3,60.6,29.6,90.3l3.8-3.7
				c-27.4-29.9-33.7-62.4-26.4-90l-33.2-32.9C183.8,481.7,182.3,467.5,188.6,456.5z"/>
		</g>
		<g>
			<circle class="st22" cx="334.8" cy="290.4" r="33.2"/>
		</g>
		<g>
			
				<ellipse transform="matrix(0.1602 -0.9871 0.9871 0.1602 420.314 1388.4131)" class="st5" cx="1026.1" cy="447.2" rx="22.3" ry="22.3"/>
		</g>
		<circle class="st5" cx="357.4" cy="361.5" r="22"/>
		<line class="st29" x1="249.2" y1="1082.8" x2="461.9" y2="1082.8"/>
		<line class="st30" x1="878.2" y1="1114" x2="1061.8" y2="1114"/>
		<line class="st30" x1="253.2" y1="1118" x2="323" y2="1118"/>
	</g>
</g>
<g id="Text">
</g>
<g id="TopBar">
</g>
<g id="Logo_AP">
</g>
</svg>
