<?xml version="1.0" encoding="utf-8"?>
<!-- Generator: Adobe Illustrator 22.0.0, SVG Export Plug-In . SVG Version: 6.00 Build 0)  -->
<svg version="1.1" id="Capa_1" xmlns="http://www.w3.org/2000/svg" xmlns:xlink="http://www.w3.org/1999/xlink" x="0px" y="0px"
	 viewBox="0 0 512 512" style="enable-background:new 0 0 512 512;" xml:space="preserve">
<style type="text/css">
	.st0{fill:#E4EEF2;}
	.st1{fill:#CAD8E8;}
	.st2{fill:#FFCFDC;}
	.st3{fill:#414B58;}
</style>
<g>
	<path class="st0" d="M447.5,154.1c-14.9-36.8-52.9-60.1-93.5-55.4c-5.1,0.6-10.2-1.6-13.4-5.6c-19.9-24.8-50.4-40.7-84.7-40.7
		s-64.8,15.9-84.7,40.7c-3.2,4-8.3,6.2-13.4,5.6c-40.6-4.8-78.6,18.6-93.5,55.4c-1.8,4.4-5.7,7.7-10.3,8.8
		C23.1,170.5,0,198.5,0,231.9c0,44.2,39.8,77.1,82.4,70.1c5.1-0.8,10.2,1.1,13.7,5c22.6,25.5,56.9,38.1,91.4,32.2
		c3.7-0.6,7.4,0,10.6,2c16.8,10.6,36.6,16.7,57.9,16.7s41.1-6.1,57.9-16.7c3.1-2,6.9-2.6,10.6-2c34.6,5.9,68.9-6.8,91.4-32.2
		c3.4-3.9,8.5-5.8,13.7-5C472.2,309,512,276,512,231.9c0-33.4-23.1-61.4-54.1-69C453.2,161.8,449.3,158.5,447.5,154.1L447.5,154.1z"
		/>
	<path class="st1" d="M289,352.7c-42.9-5.7-71.6-32.3-63.6-66.3c1.4-6.1-2.3-12.2-8.3-13.9c-43.8-12.4-50-62.8-23.9-95.5
		c3.5-4.4,3.3-10.6-0.3-14.8c-22.7-26.8-17.6-58.6-0.6-89.1c-7.9,5.7-14.9,12.4-21,20c-3.3,4.1-8.5,6.2-13.7,5.6
		c-40.4-4.6-78.3,18.7-93.2,55.4c-1.8,4.4-5.7,7.7-10.3,8.8C23.1,170.5,0,198.5,0,231.9c0,44.2,39.8,77.1,82.4,70.1
		c5-0.8,10.1,0.9,13.4,4.7c22.6,25.7,57.2,38.4,91.9,32.4c3.6-0.6,7.3,0.1,10.3,2c16.8,10.6,36.6,16.7,57.9,16.7
		C267.5,357.9,278.6,356.1,289,352.7L289,352.7z"/>
	<g>
		<g>
			<ellipse class="st2" cx="167.6" cy="238.3" rx="31.9" ry="25.4"/>
			<ellipse class="st2" cx="340.4" cy="238.3" rx="31.9" ry="25.4"/>
		</g>
	</g>
</g>
<g>
	<path class="st3" d="M166.7,215.4c-5.1,0-9.2-4.1-9.2-9.2v-14.8c0-5.1,4.1-9.2,9.2-9.2c5.1,0,9.2,4.1,9.2,9.2v14.8
		C175.9,211.3,171.8,215.4,166.7,215.4z"/>
	<path class="st3" d="M341.5,215.4c-5.1,0-9.2-4.1-9.2-9.2v-14.8c0-5.1,4.1-9.2,9.2-9.2c5.1,0,9.2,4.1,9.2,9.2v14.8
		C350.8,211.3,346.6,215.4,341.5,215.4z"/>
</g>
<path class="st3" d="M172.4,170.8l-26.3,11c-3.6,1.5-7.7-0.2-9.2-3.8l0,0c-1.5-3.6,0.2-7.7,3.8-9.2l26.3-11c3.6-1.5,7.7,0.2,9.2,3.8
	v0C177.7,165.2,176,169.3,172.4,170.8z"/>
<path class="st3" d="M363.9,169.1l-26.3-11c-3.6-1.5-7.7,0.2-9.2,3.8v0c-1.5,3.6,0.2,7.7,3.8,9.2l26.3,11c3.6,1.5,7.7-0.2,9.2-3.8v0
	C369.2,174.7,367.5,170.6,363.9,169.1z"/>
<path class="st3" d="M278.7,257.8c-13-7-29.1-6.7-41.5,1.6c-7.5,5-0.5,17.1,7.1,12.1c8.3-5.5,18.5-6.4,27.4-1.6
	C279.6,274.2,286.6,262.1,278.7,257.8z"/>
<path class="st0" d="M99.1,358.8L99.1,358.8C99.1,358.8,99.1,358.8,99.1,358.8C99.1,358.8,99.1,358.8,99.1,358.8L99.1,358.8
	c4.9,66.6,28.7,49.7,28.7,49.7C127.8,408.5,154.3,396.3,99.1,358.8z"/>
<path class="st0" d="M183.6,368.3L183.6,368.3C183.6,368.3,183.6,368.3,183.6,368.3C183.6,368.3,183.6,368.3,183.6,368.3
	L183.6,368.3c4.9,66.6,28.7,49.7,28.7,49.7C212.3,418,238.8,405.8,183.6,368.3z"/>
<path class="st1" d="M236.4,369.7L236.4,369.7C236.4,369.7,236.4,369.7,236.4,369.7C236.4,369.7,236.4,369.7,236.4,369.7
	L236.4,369.7c2.1,28.2,12.1,21,12.1,21C248.6,390.7,259.8,385.5,236.4,369.7z"/>
<path class="st1" d="M340.1,374.7L340.1,374.7C340.1,374.7,340.1,374.7,340.1,374.7C340.1,374.7,340.1,374.7,340.1,374.7
	L340.1,374.7c2.1,28.2,12.1,21,12.1,21C352.3,395.7,363.5,390.5,340.1,374.7z"/>
<path class="st0" d="M285.6,371.3L285.6,371.3C285.6,371.3,285.6,371.3,285.6,371.3C285.6,371.3,285.6,371.3,285.6,371.3
	L285.6,371.3c4.9,66.6,28.7,49.7,28.7,49.7C314.3,421,340.8,408.8,285.6,371.3z"/>
<path class="st0" d="M385.6,351.8L385.6,351.8C385.6,351.8,385.6,351.8,385.6,351.8C385.6,351.8,385.6,351.8,385.6,351.8
	L385.6,351.8c4.9,66.6,28.7,49.7,28.7,49.7C414.3,401.5,440.8,389.3,385.6,351.8z"/>
</svg>
